<svg width="1021" height="605" xmlns="http://www.w3.org/2000/svg" xmlns:xlink="http://www.w3.org/1999/xlink" overflow="hidden"><defs><clipPath id="clip0"><rect x="0" y="0" width="1021" height="605"/></clipPath></defs><g clip-path="url(#clip0)"><rect x="0" y="0" width="1021" height="605.037" fill="#FFFFFF"/><path d="M220.5 87.0054C220.5 64.6365 240.871 46.5029 266 46.5029 291.129 46.5029 311.5 64.6365 311.5 87.0054 311.5 109.374 291.129 127.508 266 127.508 240.871 127.508 220.5 109.374 220.5 87.0054Z" stroke="#000000" stroke-width="1.33399" stroke-miterlimit="8" fill="#A9D18E" fill-rule="evenodd"/><text font-family="Cambria Math,Cambria Math_MSFontService,sans-serif" font-weight="400" font-size="37" transform="matrix(1 0 0 1.00006 239.32 99)">ğ’Ÿ<tspan font-size="27" x="26.6397" y="6.99957">0</tspan></text><path d="M311 85.0047 371.505 85.0047 371.505 190.446 369.504 190.446 369.504 86.0053 370.504 87.0058 311 87.0058ZM374.506 189.112 370.504 197.116 366.502 189.112Z"/><path d="M649.5 279.517C649.5 274.546 653.53 270.517 658.5 270.517L697.5 270.517C702.47 270.517 706.5 274.546 706.5 279.517L706.5 315.519C706.5 320.49 702.47 324.52 697.5 324.52L658.5 324.52C653.53 324.52 649.5 320.49 649.5 315.519Z" stroke="#000000" stroke-width="1.33399" stroke-miterlimit="8" fill="#FFE699" fill-rule="evenodd"/><text font-family="Cambria Math,Cambria Math_MSFontService,sans-serif" font-weight="400" font-size="37" transform="matrix(1 0 0 1.00006 668.514 310)">D</text><path d="M590.003 296.018 642.234 296.172 642.228 298.173 589.997 298.019ZM640.909 293.167 648.901 297.192 640.885 301.171Z"/><rect x="730.5" y="214.513" width="282" height="173.011" stroke="#000000" stroke-width="1.33399" stroke-miterlimit="8" fill="#FA8686"/><path d="M781.5 279.517C781.5 274.546 785.53 270.517 790.5 270.517L828.5 270.517C833.471 270.517 837.5 274.546 837.5 279.517L837.5 315.519C837.5 320.49 833.471 324.52 828.5 324.52L790.5 324.52C785.53 324.52 781.5 320.49 781.5 315.519Z" stroke="#000000" stroke-width="1.33399" stroke-miterlimit="8" fill="#FFE699" fill-rule="evenodd"/><text font-family="Cambria Math,Cambria Math_MSFontService,sans-serif" font-weight="400" font-size="37" transform="matrix(1 0 0 1.00006 792.81 310)">ğ»<tspan font-size="37" x="28.2739" y="0"> </tspan></text><path d="M635.5 21.1682C635.5 14.1721 641.171 8.50054 648.167 8.50054L707.833 8.50054C714.829 8.50054 720.5 14.1721 720.5 21.1682L720.5 71.8375C720.5 78.8336 714.829 84.5051 707.833 84.5051L648.167 84.5051C641.171 84.5051 635.5 78.8336 635.5 71.8375Z" stroke="#000000" stroke-width="1.33399" stroke-miterlimit="8" fill="#8FAADC" fill-rule="evenodd"/><text font-family="Cambria Math,Cambria Math_MSFontService,sans-serif" font-weight="400" font-size="37" transform="matrix(1 0 0 1.00006 656.687 59)">ğ‘€</text><path d="M720 45.0022 809.908 45.0022 809.908 263.708 807.907 263.708 807.907 46.0028 808.908 47.0033 720 47.0033ZM812.91 262.374 808.908 270.379 804.906 262.374Z"/><path d="M219.5 541.033C219.5 518.664 239.871 500.531 265 500.531 290.129 500.531 310.5 518.664 310.5 541.033 310.5 563.402 290.129 581.536 265 581.536 239.871 581.536 219.5 563.402 219.5 541.033Z" stroke="#000000" stroke-width="1.33399" stroke-miterlimit="8" fill="#A9D18E" fill-rule="evenodd"/><text font-family="Cambria Math,Cambria Math_MSFontService,sans-serif" font-weight="400" font-size="37" transform="matrix(1 0 0 1.00006 239.095 553)">ğ’Ÿ<tspan font-size="27" x="25.7793" y="7.99951">1</tspan></text><path d="M0-1.00049 61.1598-1.00049 61.1598 138.107 59.1588 138.107 59.1588 0 60.1593 1.00049 0 1.00049ZM64.1613 136.773 60.1593 144.777 56.1574 136.773Z" transform="matrix(1 0 0 -1.00006 310 540.81)"/><path d="M0.0059644-1.00047 44.7313-0.733838 44.7193 1.26711-0.0059644 1.00047ZM43.4152-3.74321 51.3951 0.306397 43.3675 4.26057Z" transform="matrix(1 0 0 -1.00006 837 297.325)"/><path d="M1.00049-1.223e-06 1.00059 79.258-1.00039 79.258-1.00049 1.223e-06ZM4.00206 77.924 0.000105038 85.928-4.00186 77.924Z" transform="matrix(1 0 0 -1.00006 677 269.945)"/><text font-family="Calibri,Calibri_MSFontService,sans-serif" font-weight="700" font-size="32" transform="matrix(1 0 0 1.00006 857.566 200)">Adversary</text><path d="M599.5 140.342C599.5 135.463 603.455 131.508 608.333 131.508L747.667 131.508C752.545 131.508 756.5 135.463 756.5 140.342L756.5 175.677C756.5 180.556 752.545 184.511 747.667 184.511L608.333 184.511C603.455 184.511 599.5 180.556 599.5 175.677Z" stroke="#000000" stroke-width="1.33399" stroke-miterlimit="8" fill="#FFE699" fill-rule="evenodd"/><text font-family="Calibri,Calibri_MSFontService,sans-serif" font-weight="400" font-size="32" transform="matrix(1 0 0 1.00006 625.867 168)">Training</text><path d="M676 131.2 676 90.6755 678.001 90.6755 678.001 131.2ZM672.998 92.0096 677 84.0051 681.002 92.0095Z"/><rect x="151.5" y="197.512" width="439" height="199.012" stroke="#2F528F" stroke-width="1.33399" stroke-miterlimit="8" fill="#4472C4"/><text fill="#FFFFFF" font-family="Calibri,Calibri_MSFontService,sans-serif" font-weight="400" font-size="27" transform="matrix(1 0 0 1.00006 478.046 351)">Sampled<tspan font-size="27" x="-7.42362" y="31.998">Randomly</tspan></text><path d="M310.5 324.52C310.5 319.549 314.529 315.519 319.5 315.519L442.5 315.519C447.47 315.519 451.5 319.549 451.5 324.52L451.5 360.522C451.5 365.493 447.47 369.523 442.5 369.523L319.5 369.523C314.529 369.523 310.5 365.493 310.5 360.522Z" stroke="#000000" stroke-width="1.33399" stroke-miterlimit="8" fill="#FFE699" fill-rule="evenodd"/><text font-family="Cambria Math,Cambria Math_MSFontService,sans-serif" font-weight="400" font-size="37" transform="matrix(1 0 0 1.00006 324.898 355)">D<tspan font-size="37" x="24.6787" y="0">~</tspan><tspan font-size="37" x="51.3585" y="0"> </tspan><tspan font-size="37" x="59.5291" y="0">ğ’Ÿ</tspan><tspan font-size="27" x="85.3084" y="6.99957">1</tspan></text><path d="M309.5 231.348C309.5 226.469 313.455 222.514 318.334 222.514L443.667 222.514C448.545 222.514 452.5 226.469 452.5 231.348L452.5 266.683C452.5 271.562 448.545 275.517 443.667 275.517L318.334 275.517C313.455 275.517 309.5 271.562 309.5 266.683Z" stroke="#000000" stroke-width="1.33399" stroke-miterlimit="8" fill="#FFE699" fill-rule="evenodd"/><text font-family="Cambria Math,Cambria Math_MSFontService,sans-serif" font-weight="400" font-size="37" transform="matrix(1 0 0 1.00006 324.468 261)">D<tspan font-size="37" x="24.6787" y="0">~</tspan><tspan font-size="37" x="51.3585" y="0"> </tspan><tspan font-size="37" x="59.5291" y="0">ğ’Ÿ</tspan><tspan font-size="27" x="86.1689" y="7.99951">0</tspan></text><text fill="#FFFFFF" font-family="Calibri,Calibri_MSFontService,sans-serif" font-weight="400" font-size="20" transform="matrix(1 0 0 1.00006 295.654 254)">:</text><path d="M449.021 119.507 568.5 119.507 568.5 157.989C568.5 174.294 555.283 187.512 538.979 187.512L419.5 187.512 419.5 149.03C419.5 132.725 432.717 119.507 449.021 119.507Z" stroke="#000000" stroke-width="1.33399" stroke-miterlimit="8" fill="#C9C9C9" fill-rule="evenodd"/><text font-family="Cambria Math,Cambria Math_MSFontService,sans-serif" font-weight="400" font-size="20" transform="matrix(1 0 0 1.00006 448.386 163)">ğ‘<tspan font-size="20" x="10.932" y="0"> </tspan><tspan font-size="15" x="21.8174" y="-14.9991">ğ‘…</tspan></text><path d="M15.6348-5.06836 3.30078-5.06836 5.53711-2.2168 4.96094-1.67969 1.12305-5.40039 1.12305-6.02539 4.96094-9.74609 5.53711-9.20898 3.30078-6.36719 15.6348-6.36719Z" transform="matrix(1 0 0 1.00006 466.908 163)"/><text font-family="Cambria Math,Cambria Math_MSFontService,sans-serif" font-weight="400" font-size="20" transform="matrix(1 0 0 1.00006 484.89 163)"> <tspan font-size="20" x="5.96292" y="0">{</tspan><tspan font-size="20" x="13.4666" y="0">0</tspan><tspan font-size="20" x="24.3052" y="0">,</tspan><tspan font-size="20" x="31.5621" y="0">1</tspan><tspan font-size="20" x="42.4008" y="0">}</tspan></text><path d="M7.50005 297.518C7.50005 274.873 27.8711 256.516 53 256.516 78.129 256.516 98.5 274.873 98.5 297.518 98.5 320.163 78.129 338.521 53 338.521 27.8711 338.521 7.50005 320.163 7.50005 297.518Z" stroke="#000000" stroke-width="1.33399" stroke-miterlimit="8" fill="#A9D18E" fill-rule="evenodd"/><text font-family="Cambria Math,Cambria Math_MSFontService,sans-serif" font-weight="400" font-size="37" transform="matrix(1 0 0 1.00006 34.3234 310)">ğ’Ÿ</text><path d="M86.5 45.5028 147.5 60.7537 147.5 113.257 86.5 128.508Z" stroke="#000000" stroke-width="1.33407" stroke-miterlimit="8" fill="#A9D18E" fill-rule="evenodd"/><path d="M15.248-24.9497C16.7536-24.9497 17.9972-24.6335 18.9788-24.0012 19.9604-23.3689 20.6499-22.4746 21.0474-21.3184L17.7593-19.8369C17.2655-20.9209 16.6753-21.7038 15.9888-22.1855 15.3022-22.6673 14.5013-22.9082 13.5859-22.9082 12.3213-22.9082 11.1741-22.5499 10.1443-21.8333 9.1145-21.1166 8.22624-20.0748 7.47949-18.7078 6.73275-17.3407 6.15763-15.7539 5.75415-13.9473 5.35067-12.1406 5.14893-10.5749 5.14893-9.25 5.14893-7.51562 5.50724-6.21183 6.22388-5.33862 6.94051-4.46541 8.00944-4.02881 9.43066-4.02881 10.2738-4.02881 11.0837-4.21851 11.8606-4.5979 12.6375-4.97729 13.2758-5.52531 13.7756-6.24194 14.2755-6.95858 14.6217-7.82275 14.8145-8.83447L15.2661-11.2734 18.5903-11.2915 16.585-1.75244C16.2236-0.00602209 15.7268 1.47542 15.0945 2.69189 14.4622 3.90837 13.6763 4.90202 12.7368 5.67285 11.7974 6.44368 10.8459 6.98568 9.88232 7.29883 8.91878 7.61198 7.91309 7.76855 6.86523 7.76855 5.40788 7.76855 4.08301 7.35905 2.89062 6.54004 1.69824 5.72103 0.734701 4.54069 3.1363e-07 2.99902L2.74609 1.49951C3.44466 3.05322 4.20947 4.20044 5.04053 4.94116 5.87158 5.68188 6.82308 6.05225 7.89502 6.05225 9.21989 6.05225 10.2617 5.60962 11.0205 4.72436 11.7793 3.83911 12.4116 2.39079 12.9175 0.379394L14.0195-4.02881 13.8208-4.13721C13.0138-3.45068 12.1286-2.90869 11.165-2.51123 10.2015-2.11377 9.29818-1.91504 8.45508-1.91504 6.27507-1.91504 4.63102-2.56844 3.52295-3.87524 2.41488-5.18205 1.86084-7.08805 1.86084-9.59326 1.86084-11.0145 2.07161-12.5411 2.49316-14.1731 2.91471-15.8051 3.54403-17.2865 4.3811-18.6174 5.21818-19.9483 6.2028-21.0865 7.33496-22.032 8.46712-22.9775 9.71069-23.7001 11.0657-24.1999 12.4207-24.6998 13.8148-24.9497 15.248-24.9497Z" fill-rule="evenodd" transform="matrix(1 0 0 1.00006 89.3258 98.8625)"/><text fill="#000000" fill-opacity="0" font-family="Arial,Arial_MSFontService,sans-serif" font-size="32.7183" y="3.67877">ğ’¢</text><path d="M7.81787-15.7939C7.20264-15.7939 6.68848-15.6335 6.27539-15.3127 5.8623-14.9919 5.53491-14.5217 5.29321-13.9021 5.05151-13.2825 4.88013-12.5266 4.77905-11.6345 4.67798-10.7424 4.62744-9.72949 4.62744-8.5957 4.62744-7.28613 4.69116-6.15454 4.8186-5.20093 4.94604-4.24731 5.1438-3.46289 5.41186-2.84766 5.67993-2.23242 6.01611-1.77979 6.42041-1.48975 6.82471-1.19971 7.3081-1.05469 7.8706-1.05469 8.39795-1.05469 8.85937-1.19092 9.25488-1.46338 9.65039-1.73584 9.97778-2.15991 10.2371-2.7356 10.4963-3.31128 10.6919-4.04077 10.8237-4.92407 10.9556-5.80737 11.0215-6.85107 11.0215-8.05517 11.0215-9.40869 10.949-10.5732 10.804-11.5488 10.6589-12.5244 10.4546-13.3264 10.1909-13.9548 9.92725-14.5833 9.59546-15.0469 9.19556-15.3457 8.79565-15.6445 8.33642-15.7939 7.81787-15.7939ZM7.8706-17.0728C8.9165-17.0728 9.81079-16.8772 10.5535-16.4861 11.2961-16.095 11.9026-15.5369 12.3728-14.8118 12.843-14.0867 13.188-13.2012 13.4077-12.1553 13.6274-11.1094 13.7373-9.92725 13.7373-8.60889 13.7373-5.68213 13.2187-3.46948 12.1816-1.97095 11.1445-0.472412 9.6416 0.276855 7.67285 0.276855 5.72168 0.276855 4.27148-0.430664 3.32227-1.8457 2.37305-3.26074 1.89844-5.40527 1.89844-8.2793 1.89844-9.78223 2.04565-11.083 2.34009-12.1816 2.63452-13.2803 3.04761-14.1921 3.57935-14.9172 4.11108-15.6423 4.7417-16.1829 5.47119-16.5388 6.20068-16.8948 7.00049-17.0728 7.8706-17.0728Z" fill-rule="evenodd" transform="matrix(1 0 0 1.00006 110.109 106.487)"/><text fill="#000000" fill-opacity="0" font-family="Arial,Arial_MSFontService,sans-serif" font-size="17.3496" x="1.89844" y="-1.89185">0</text><path d="M85.5002 499.531 146.5 514.781 146.5 567.285 85.5002 582.536Z" stroke="#000000" stroke-width="1.33407" stroke-miterlimit="8" fill="#A9D18E" fill-rule="evenodd"/><path d="M15.248-24.9497C16.7536-24.9497 17.9972-24.6335 18.9788-24.0012 19.9604-23.3689 20.6499-22.4746 21.0474-21.3184L17.7593-19.8369C17.2655-20.9209 16.6753-21.7038 15.9888-22.1855 15.3022-22.6673 14.5013-22.9082 13.5859-22.9082 12.3213-22.9082 11.1741-22.5499 10.1443-21.8333 9.1145-21.1166 8.22624-20.0748 7.47949-18.7078 6.73275-17.3407 6.15763-15.7539 5.75415-13.9473 5.35067-12.1406 5.14893-10.5749 5.14893-9.25 5.14893-7.51562 5.50724-6.21183 6.22388-5.33862 6.94051-4.46541 8.00944-4.02881 9.43066-4.02881 10.2738-4.02881 11.0837-4.21851 11.8606-4.5979 12.6375-4.97729 13.2758-5.52531 13.7756-6.24194 14.2755-6.95858 14.6217-7.82275 14.8145-8.83447L15.2661-11.2734 18.5903-11.2915 16.585-1.75244C16.2236-0.00602209 15.7268 1.47542 15.0945 2.69189 14.4622 3.90837 13.6763 4.90202 12.7368 5.67285 11.7974 6.44368 10.8459 6.98568 9.88232 7.29883 8.91878 7.61198 7.91309 7.76855 6.86523 7.76855 5.40788 7.76855 4.08301 7.35905 2.89062 6.54004 1.69824 5.72103 0.734701 4.54069 3.1363e-07 2.99902L2.74609 1.49951C3.44466 3.05322 4.20947 4.20044 5.04053 4.94116 5.87158 5.68188 6.82308 6.05225 7.89502 6.05225 9.21989 6.05225 10.2617 5.60962 11.0205 4.72436 11.7793 3.83911 12.4116 2.39079 12.9175 0.379394L14.0195-4.02881 13.8208-4.13721C13.0138-3.45068 12.1286-2.90869 11.165-2.51123 10.2015-2.11377 9.29818-1.91504 8.45508-1.91504 6.27507-1.91504 4.63102-2.56844 3.52295-3.87524 2.41488-5.18205 1.86084-7.08805 1.86084-9.59326 1.86084-11.0145 2.07161-12.5411 2.49316-14.1731 2.91471-15.8051 3.54403-17.2865 4.3811-18.6174 5.21818-19.9483 6.2028-21.0865 7.33496-22.032 8.46712-22.9775 9.71069-23.7001 11.0657-24.1999 12.4207-24.6998 13.8148-24.9497 15.248-24.9497Z" fill-rule="evenodd" transform="matrix(1 0 0 1.00006 89.1007 553.478)"/><text fill="#000000" fill-opacity="0" font-family="Arial,Arial_MSFontService,sans-serif" font-size="32.7183" y="3.67877">ğ’¢</text><path d="M8.89892-16.9805 9.70312-16.9805C9.68555-16.4971 9.67236-16.0642 9.66357-15.6819 9.65478-15.2996 9.64819-14.9282 9.6438-14.5679 9.6394-14.2075 9.63721-13.8516 9.63721-13.5L9.63721-3.48047C9.63721-3.20801 9.646-2.9729 9.66357-2.77515 9.68115-2.57739 9.70972-2.4104 9.74927-2.27417 9.78882-2.13794 9.84155-2.02148 9.90747-1.9248 9.97339-1.82812 10.0503-1.74463 10.1382-1.67432 10.2437-1.56885 10.3843-1.48755 10.5601-1.43042 10.7358-1.37329 10.96-1.32495 11.2324-1.2854 11.5049-1.24585 11.8323-1.21509 12.2146-1.19312 12.5969-1.17114 13.0562-1.15576 13.5923-1.14697L13.5923 0 3.1377 0 3.1377-1.14697C3.65625-1.16455 4.0957-1.18433 4.45605-1.2063 4.81641-1.22827 5.12402-1.25903 5.37891-1.29858 5.63379-1.33813 5.83813-1.38208 5.99194-1.43042 6.14575-1.47876 6.27978-1.53809 6.39404-1.6084 6.51709-1.6875 6.62256-1.77319 6.71045-1.86548 6.79834-1.95776 6.86865-2.07422 6.92139-2.21484 6.97412-2.35547 7.01587-2.52686 7.04663-2.729 7.07739-2.93115 7.09277-3.18164 7.09277-3.48047L7.09277-12.9331C7.09277-13.2759 7.02685-13.5176 6.89502-13.6582 6.76318-13.7988 6.57422-13.8691 6.32812-13.8691 6.05566-13.8691 5.65137-13.7285 5.11523-13.4473 4.5791-13.166 3.88477-12.7485 3.03223-12.1948 2.91797-12.397 2.8125-12.5991 2.71582-12.8013 2.61914-13.0034 2.51807-13.21 2.4126-13.4209 3.50244-14.0186 4.5813-14.614 5.64917-15.2073 6.71704-15.8005 7.80029-16.3916 8.89892-16.9805Z" fill-rule="evenodd" transform="matrix(1 0 0 1.00006 109.024 561.102)"/><text fill="#000000" fill-opacity="0" font-family="Arial,Arial_MSFontService,sans-serif" font-size="16.9805" x="2.4126" y="-2.12256">1</text><path d="M51.9995 256.239 51.9995 85.0047 79.4007 85.0047 79.4007 87.0058 53 87.0058 54.0005 86.0053 54.0005 256.239ZM78.0667 82.0031 86.0706 86.0053 78.0667 90.0075Z"/><path d="M0-1.00049 204.142-1.00049 204.142 25.7454 202.141 25.7454 202.141 0 203.141 1.00049 0 1.00049ZM207.143 24.4114 203.141 32.4153 199.14 24.4114Z" transform="matrix(1.83697e-16 1.00006 1 -1.83708e-16 53 338.021)"/><path d="M2.87951e-06-1.00049 66.3215-1.0003 66.3215 1.00068-2.87951e-06 1.00049ZM64.9875-4.00177 72.9914 0.000210077 64.9875 4.00215Z" transform="matrix(1 0 0 -1.00006 147 86.0055)"/><path d="M1.43975e-06-1.00049 66.3216-1.00039 66.3216 1.00059-1.43975e-06 1.00049ZM64.9876-4.00187 72.9915 0.000105038 64.9876 4.00205Z" transform="matrix(1 0 0 -1.00006 146 541.033)"/><path d="M192.509 224.514 272.5 224.514 272.5 254.507C272.5 267.215 262.199 277.517 249.491 277.517L169.5 277.517 169.5 247.524C169.5 234.816 179.801 224.514 192.509 224.514Z" stroke="#000000" stroke-width="1.33399" stroke-miterlimit="8" fill="#DBDBDB" fill-rule="evenodd"/><text font-family="Cambria Math,Cambria Math_MSFontService,sans-serif" font-weight="400" font-size="20" transform="matrix(1 0 0 1.00006 194.732 257)">ğ‘<tspan font-size="20" x="16.3613" y="0">=</tspan><tspan font-size="20" x="36.2978" y="0">0</tspan></text><text fill="#FFFFFF" font-family="Calibri,Calibri_MSFontService,sans-serif" font-weight="400" font-size="20" transform="matrix(1 0 0 1.00006 297.365 345)">:</text><path d="M192.943 315.519 272.5 315.519 272.5 346.078C272.5 359.026 262.004 369.523 249.057 369.523L169.5 369.523 169.5 338.964C169.5 326.016 179.996 315.519 192.943 315.519Z" stroke="#000000" stroke-width="1.33399" stroke-miterlimit="8" fill="#DBDBDB" fill-rule="evenodd"/><text font-family="Cambria Math,Cambria Math_MSFontService,sans-serif" font-weight="400" font-size="20" transform="matrix(1 0 0 1.00006 195.019 348)">ğ‘<tspan font-size="20" x="16.3613" y="0">=</tspan><tspan font-size="20" x="36.2978" y="0">1</tspan></text><path d="M911.509 270.517 991.5 270.517 991.5 300.51C991.5 313.218 981.199 323.52 968.491 323.52L888.5 323.52 888.5 293.527C888.5 280.819 898.801 270.517 911.509 270.517Z" stroke="#000000" stroke-width="1.33399" stroke-miterlimit="8" fill="#DBDBDB" fill-rule="evenodd"/><text font-family="Cambria Math,Cambria Math_MSFontService,sans-serif" font-weight="400" font-size="20" transform="matrix(1 0 0 1.00006 918.171 303)">ğ‘<tspan font-size="20" x="16.3613" y="0">=</tspan><tspan font-size="20" x="30.8685" y="0">?</tspan></text></g></svg>