<svg width="1021" height="605" xmlns="http://www.w3.org/2000/svg" xmlns:xlink="http://www.w3.org/1999/xlink" overflow="hidden"><defs><clipPath id="clip0"><rect x="0" y="0" width="1021" height="605"/></clipPath></defs><g clip-path="url(#clip0)"><rect x="0" y="0" width="1021" height="605.037" fill="#FFFFFF"/><rect x="704.5" y="237.515" width="306" height="173.011" stroke="#000000" stroke-width="1.33399" stroke-miterlimit="8" fill="#FA8686"/><rect x="126.5" y="220.514" width="439" height="199.012" stroke="#2F528F" stroke-width="1.33399" stroke-miterlimit="8" fill="#4472C4"/><path d="M105 175.01 346.41 175.01 346.41 213.839 344.409 213.839 344.409 176.011 345.409 177.011 105 177.011ZM349.411 212.505 345.409 220.509 341.407 212.505Z"/><path d="M565.005 319.019 617.237 319.3 617.226 321.301 564.995 321.02ZM615.919 316.291 623.901 320.337 615.876 324.296Z"/><path d="M755.5 302.519C755.5 297.548 759.529 293.518 764.5 293.518L802.5 293.518C807.47 293.518 811.5 297.548 811.5 302.519L811.5 338.521C811.5 343.492 807.47 347.521 802.5 347.521L764.5 347.521C759.529 347.521 755.5 343.492 755.5 338.521Z" stroke="#000000" stroke-width="1.33399" stroke-miterlimit="8" fill="#FFE699" fill-rule="evenodd"/><text font-family="Cambria Math,Cambria Math_MSFontService,sans-serif" font-weight="400" font-size="37" transform="matrix(1 0 0 1.00006 767.272 333)">ğ»<tspan font-size="37" x="28.2739" y="0"> </tspan></text><path d="M57.9995 135.356 57.9995 68.0037 160.056 68.0037 160.056 70.0048 59 70.0048 60.0005 69.0043 60.0005 135.356ZM158.722 65.0021 166.725 69.0043 158.722 73.0065Z"/><path d="M324 68.0037 602.248 68.0038 602.248 70.0049 324 70.0048ZM600.914 65.0021 608.918 69.0043 600.914 73.0065Z"/><path d="M694 68.0037 783.908 68.0037 783.908 286.71 781.907 286.71 781.907 69.0042 782.908 70.0048 694 70.0048ZM786.91 285.376 782.908 293.38 778.906 285.376Z"/><path d="M0-1.00049 234.295-1.00049 234.295 51.967 232.294 51.967 232.294 0 233.295 1.00049 0 1.00049ZM237.297 50.633 233.295 58.6369 229.293 50.633Z" transform="matrix(1 0 0 -1.00006 112 477.666)"/><text fill="#FFFFFF" font-family="Calibri,Calibri_MSFontService,sans-serif" font-weight="400" font-size="27" transform="matrix(1 0 0 1.00006 452.509 374)">Sampled<tspan font-size="27" x="-7.42365" y="31.998">Randomly</tspan></text><path d="M67.0004 518.554 67.0004 542.566 65.9999 541.566 782.991 541.566 781.991 542.566 781.991 353.692 783.992 353.692 783.992 543.567 64.9994 543.567 64.9994 518.554ZM778.989 355.026 782.991 347.021 786.993 355.026Z"/><path d="M0.00424148-1.00048 65.5825-0.722466 65.574 1.2785-0.00424148 1.00048ZM64.2613-3.72956 72.2482 0.306292 64.2274 4.27428Z" transform="matrix(1 0 0 -1.00006 811 320.326)"/><path d="M0.00203101-1.00049 82.3812-0.833257 82.3771 1.16772-0.00203101 1.00049ZM81.0533-3.83743 89.0491 0.180771 81.037 4.16647Z" transform="matrix(1 0 0 -1.00006 666 320.2)"/><text font-family="Calibri,Calibri_MSFontService,sans-serif" font-weight="700" font-size="32" transform="matrix(1 0 0 1.00006 853.909 220)">Adversary</text><path d="M285.5 347.522C285.5 342.551 289.53 338.521 294.5 338.521L416.5 338.521C421.471 338.521 425.5 342.551 425.5 347.522L425.5 383.523C425.5 388.494 421.471 392.524 416.5 392.524L294.5 392.524C289.53 392.524 285.5 388.494 285.5 383.523Z" stroke="#000000" stroke-width="1.33399" stroke-miterlimit="8" fill="#FFE699" fill-rule="evenodd"/><text font-family="Cambria Math,Cambria Math_MSFontService,sans-serif" font-weight="400" font-size="37" transform="matrix(1 0 0 1.00006 309.819 377)">ğ‘§<tspan font-size="37" x="18.6491" y="0"> </tspan><tspan font-size="37" x="26.8198" y="0">~</tspan><tspan font-size="37" x="53.4995" y="0">ğ’Ÿ</tspan></text><path d="M284.5 253.516C284.5 248.545 288.529 244.515 293.5 244.515L417.5 244.515C422.47 244.515 426.5 248.545 426.5 253.516L426.5 289.518C426.5 294.489 422.47 298.518 417.5 298.518L293.5 298.518C288.529 298.518 284.5 294.489 284.5 289.518Z" stroke="#000000" stroke-width="1.33399" stroke-miterlimit="8" fill="#FFE699" fill-rule="evenodd"/><text font-family="Cambria Math,Cambria Math_MSFontService,sans-serif" font-weight="400" font-size="37" transform="matrix(1 0 0 1.00006 314.705 284)">ğ‘§<tspan font-size="37" x="18.6491" y="0"> </tspan><tspan font-size="37" x="26.8198" y="0">~</tspan><tspan font-size="37" x="53.4995" y="0">S</tspan></text><path d="M624.5 302.519C624.5 297.548 628.529 293.518 633.5 293.518L671.5 293.518C676.47 293.518 680.5 297.548 680.5 302.519L680.5 338.521C680.5 343.492 676.47 347.521 671.5 347.521L633.5 347.521C628.529 347.521 624.5 343.492 624.5 338.521Z" stroke="#000000" stroke-width="1.33399" stroke-miterlimit="8" fill="#FFE699" fill-rule="evenodd"/><text font-family="Cambria Math,Cambria Math_MSFontService,sans-serif" font-weight="400" font-size="37" transform="matrix(1 0 0 1.00006 640.836 333)">ğ‘§<tspan font-size="37" x="18.6491" y="0"> </tspan></text><path d="M423.587 142.509 543.5 142.509 543.5 180.424C543.5 196.489 530.477 209.513 514.413 209.513L394.5 209.513 394.5 171.597C394.5 155.532 407.522 142.509 423.587 142.509Z" stroke="#000000" stroke-width="1.33399" stroke-miterlimit="8" fill="#C9C9C9" fill-rule="evenodd"/><text font-family="Cambria Math,Cambria Math_MSFontService,sans-serif" font-weight="400" font-size="20" transform="matrix(1 0 0 1.00006 422.849 186)">ğ‘<tspan font-size="20" x="10.932" y="0"> </tspan><tspan font-size="15" x="21.8174" y="-14.9991">ğ‘…</tspan></text><path d="M15.6348-5.06836 3.30078-5.06836 5.53711-2.2168 4.96094-1.67969 1.12305-5.40039 1.12305-6.02539 4.96094-9.74609 5.53711-9.20898 3.30078-6.36719 15.6348-6.36719Z" transform="matrix(1 0 0 1.00006 441.371 186)"/><text font-family="Cambria Math,Cambria Math_MSFontService,sans-serif" font-weight="400" font-size="20" transform="matrix(1 0 0 1.00006 459.353 186)"> <tspan font-size="20" x="5.96292" y="0">{</tspan><tspan font-size="20" x="13.4666" y="0">0</tspan><tspan font-size="20" x="24.3052" y="0">,</tspan><tspan font-size="20" x="31.5621" y="0">1</tspan><tspan font-size="20" x="42.4008" y="0">}</tspan></text><path d="M167.5 51.5034C167.5 46.5324 171.53 42.5026 176.5 42.5026L315.5 42.5026C320.47 42.5026 324.5 46.5324 324.5 51.5034L324.5 87.5051C324.5 92.4761 320.47 96.5059 315.5 96.5059L176.5 96.5059C171.53 96.5059 167.5 92.4761 167.5 87.5051Z" stroke="#000000" stroke-width="1.33399" stroke-miterlimit="8" fill="#FFE699" fill-rule="evenodd"/><text font-family="Calibri,Calibri_MSFontService,sans-serif" font-weight="400" font-size="32" transform="matrix(1 0 0 1.00006 194.134 80)">Training</text><path d="M609.5 44.003C609.5 37.0989 615.096 31.502 622 31.502L682 31.502C688.903 31.502 694.5 37.0989 694.5 44.003L694.5 94.0055C694.5 100.91 688.903 106.507 682 106.507L622 106.507C615.096 106.507 609.5 100.91 609.5 94.0055Z" stroke="#000000" stroke-width="1.33399" stroke-miterlimit="8" fill="#8FAADC" fill-rule="evenodd"/><text font-family="Cambria Math,Cambria Math_MSFontService,sans-serif" font-weight="400" font-size="37" transform="matrix(1 0 0 1.00006 631.15 81)">ğ‘€</text><path d="M14.5 176.011C14.5 153.642 34.871 135.508 60 135.508 85.1289 135.508 105.5 153.642 105.5 176.011 105.5 198.38 85.1289 216.513 60 216.513 34.871 216.513 14.5 198.38 14.5 176.011Z" stroke="#000000" stroke-width="1.33399" stroke-miterlimit="8" fill="#A9D18E" fill-rule="evenodd"/><text font-family="Cambria Math,Cambria Math_MSFontService,sans-serif" font-weight="400" font-size="37" transform="matrix(1 0 0 1.00006 45.6372 188)">S</text><path d="M21.5 478.029C21.5 455.66 41.871 437.527 67 437.527 92.129 437.527 112.5 455.66 112.5 478.029 112.5 500.398 92.129 518.532 67 518.532 41.871 518.532 21.5 500.398 21.5 478.029Z" stroke="#000000" stroke-width="1.33399" stroke-miterlimit="8" fill="#A9D18E" fill-rule="evenodd"/><text font-family="Cambria Math,Cambria Math_MSFontService,sans-serif" font-weight="400" font-size="37" transform="matrix(1 0 0 1.00006 47.8659 490)">ğ’Ÿ<tspan font-size="32" x="-25.2107" y="-242.985">S</tspan><tspan font-size="32" x="-9.36963" y="-242.985"> </tspan><tspan font-size="32" x="-2.3662" y="-242.985">~</tspan><tspan font-size="32" x="20.4783" y="-242.985">ğ’Ÿ</tspan></text><path d="M907.509 293.518 987.5 293.518 987.5 323.511C987.5 336.219 977.199 346.521 964.491 346.521L884.5 346.521 884.5 316.528C884.5 303.82 894.801 293.518 907.509 293.518Z" stroke="#000000" stroke-width="1.33399" stroke-miterlimit="8" fill="#DBDBDB" fill-rule="evenodd"/><text font-family="Cambria Math,Cambria Math_MSFontService,sans-serif" font-weight="400" font-size="20" transform="matrix(1 0 0 1.00006 913.487 326)">ğ‘<tspan font-size="20" x="16.3613" y="0">=</tspan><tspan font-size="20" x="30.8685" y="0">?</tspan></text><text fill="#FFFFFF" font-family="Calibri,Calibri_MSFontService,sans-serif" font-weight="400" font-size="20" transform="matrix(1 0 0 1.00006 270.116 277)">:</text><path d="M166.509 247.515 246.5 247.515 246.5 277.508C246.5 290.216 236.199 300.518 223.491 300.518L143.5 300.518 143.5 270.525C143.5 257.817 153.801 247.515 166.509 247.515Z" stroke="#000000" stroke-width="1.33399" stroke-miterlimit="8" fill="#DBDBDB" fill-rule="evenodd"/><text font-family="Cambria Math,Cambria Math_MSFontService,sans-serif" font-weight="400" font-size="20" transform="matrix(1 0 0 1.00006 169.195 280)">ğ‘<tspan font-size="20" x="16.3613" y="0">=</tspan><tspan font-size="20" x="36.2978" y="0">0</tspan></text><text fill="#FFFFFF" font-family="Calibri,Calibri_MSFontService,sans-serif" font-weight="400" font-size="20" transform="matrix(1 0 0 1.00006 271.828 368)">:</text><path d="M167.943 338.521 247.5 338.521 247.5 369.08C247.5 382.028 237.004 392.524 224.057 392.524L144.5 392.524 144.5 361.965C144.5 349.017 154.996 338.521 167.943 338.521Z" stroke="#000000" stroke-width="1.33399" stroke-miterlimit="8" fill="#DBDBDB" fill-rule="evenodd"/><text font-family="Cambria Math,Cambria Math_MSFontService,sans-serif" font-weight="400" font-size="20" transform="matrix(1 0 0 1.00006 169.482 371)">ğ‘<tspan font-size="20" x="16.3613" y="0">=</tspan><tspan font-size="20" x="36.2978" y="0">1</tspan></text></g></svg>