<svg width="306" height="306" xmlns="http://www.w3.org/2000/svg" xmlns:xlink="http://www.w3.org/1999/xlink" xml:space="preserve" overflow="hidden"><g transform="translate(-32 -312)"><g><path d="M0 0C-0.0468749 0.133125-0.0718748 0.274999-0.0706248 0.424999-0.0706248 0.467499 0.1625 15.1962 0.289374 32.6824-2.21374 35.6943-3.74874 39.7411-3.74874 44.1793-3.74874 48.7093-2.14874 52.8311 0.447499 55.8624 0.525624 61.5623 0.666248 66.9373 0.951248 71.5192 1.24875 76.3104 1.70625 80.3148 2.41499 83.0529 3.10937 85.7317 4.17061 88.496 5.58499 91.2392L5.58499 100.055C3.67374 100.273 1.96 101.14 0.669373 102.43-0.831248 103.931-1.75937 106.005-1.75937 108.294-1.75937 110.577-0.831873 112.649 0.669373 114.152L0.672498 114.154 0.674998 114.157 0.676873 114.16C2.17999 115.659 4.25124 116.587 6.53311 116.587 8.81623 116.587 10.8881 115.658 12.3912 114.157L12.3937 114.154 12.3962 114.152 12.3987 114.15C13.8981 112.647 14.8256 110.575 14.8256 108.294 14.8256 106.005 13.8968 103.931 12.3962 102.43 11.2456 101.279 9.75685 100.465 8.09248 100.148L8.09248 95.5116C11.655 100.899 16.6056 105.984 22.8474 109.917 31.6568 115.467 43.0336 118.735 56.6924 117.342 65.9273 116.4 73.3823 113.942 79.4048 110.617 79.8348 110.815 80.2873 110.979 80.7579 111.104 81.4436 111.286 82.1592 111.384 82.8898 111.384 85.1792 111.384 87.2529 110.455 88.7529 108.955 90.2535 107.455 91.1817 105.38 91.1817 103.09 91.1817 102.727 91.1548 102.35 91.1023 101.967 91.0842 101.834 91.0617 101.701 91.0379 101.569 93.9679 98.4279 96.2685 95.0954 98.076 91.8216L100.535 92.1648C100.695 92.1866 100.852 92.1773 100.999 92.1423 103.332 92.1291 105.403 90.7285 106.868 88.471 108.238 86.361 109.086 83.4735 109.086 80.3104 109.086 77.1479 108.238 74.2592 106.868 72.1498 106.15 71.0423 105.285 70.1411 104.315 69.5086 104.738 64.8117 105.062 59.268 105.294 53.3986 105.57 46.4536 105.721 39.0155 105.763 31.9649 105.837 19.715 105.522 8.7231 105.371 3.45749 105.33 2.04624 105.302 1.04937 105.296 0.569999 105.316 0.366249 105.327 0.16125 105.327-0.0443749 105.327-5.09374 99.2348-9.52248 89.3867-12.6006 85.7229-13.745 81.5192-14.7212 76.9079-15.4843L76.9073-16.3643C76.9048-17.865 76.6236-19.5537 76.8979-20.7062 77.1779-21.8806 79.0473-23.3149 79.8861-24.1562 80.5229-24.7974 81.3986-25.6643 82.2767-26.5568 82.4823-26.7674 82.8473-27.2937 83.0235-27.3081 83.5973-27.3549 86.0467-24.5518 86.4748-24.1706 87.8598-22.9324 88.9723-22.2656 89.926-21.0331 89.2823-19.7562 89.2285-18.8112 89.4835-17.5887 90.7416-11.5762 100.755-13.1381 99.2123-20.0043 98.7923-21.8718 95.3954-25.0593 92.1666-23.1343 89.6348-24.9912 87.5367-27.2868 85.1154-29.2581 87.7085-32.0799 90.2604-34.4237 93.1854-37.3618 94.1048-38.2862 95.4941-39.3662 95.7266-40.2137 96.1135-41.6318 95.7173-43.8911 95.7141-45.603 95.7029-50.8568 95.6904-56.2005 95.6791-61.6267 96.2035-62.3436 97.0723-62.4736 97.6229-62.9786 100.591-65.6986 98.9041-71.4879 94.4598-71.6561 88.6642-71.8773 87.4504-63.2236 92.8335-61.7705 92.8448-56.6711 92.8573-51.7155 92.8666-46.4955 92.8691-44.8743 93.2066-42.9343 92.8773-41.5543 92.5391-40.1386 89.3223-37.6843 88.2454-36.6018 83.4317-31.7687 78.4929-26.8368 74.0504-22.0462L74.0611-15.9225C71.4236-16.2962 68.6705-16.6037 65.8223-16.8368L65.8217-18.2875C65.8186-20.0006 65.4755-21.9724 65.813-23.3787 66.1186-24.6599 69.4011-27.4324 70.4423-28.4781 74.5542-32.6068 78.2348-36.1524 82.5467-40.4837 83.386-41.3261 84.6117-42.393 84.7867-43.0343 85.0873-44.1274 84.5417-45.4224 84.7804-46.1799 85.3779-46.8436 86.0979-46.973 86.5754-47.3818 89.5641-49.938 88.3485-55.9736 83.7123-56.2099 80.5273-56.3736 77.3692-53.2461 78.6348-49.4611 79.1442-47.9305 80.4692-47.1843 81.9354-46.323 81.8554-45.7574 82.0454-44.968 81.9386-44.3761 81.8167-43.6961 81.2304-43.0661 80.5967-42.4261 80.2717-42.1011 79.1323-40.7855 78.9523-40.7755 78.5154-40.7574 75.9029-43.663 75.5004-44.0636 74.1748-45.3843 72.9948-46.5511 72.3492-47.5005 72.3442-49.9974 72.3379-52.4911 72.3329-54.9874 72.7586-55.7292 73.5811-55.748 74.1286-56.1905 76.7323-58.298 76.3786-64.2136 72.1629-65.0211 68.4986-65.7217 64.9273-62.6098 66.1873-58.4186 66.6423-56.8999 67.9986-56.0705 69.4886-55.2817 69.5917-52.3836 69.3048-49.0943 69.6561-46.4474 70.4942-44.7861 71.6329-43.8793 73.1092-42.4111 73.6467-41.8749 74.2761-41.398 75.0586-40.6174 75.3123-40.368 76.8536-38.9843 76.8598-38.8249 76.8736-38.5268 73.7511-35.553 73.4229-35.2243 70.7205-32.5093 69.0723-30.8549 66.4005-28.1706 65.5923-27.3587 63.2967-25.7881 62.9636-24.5699 62.5542-23.0693 62.9717-20.9012 62.9755-19.1793L62.9792-17.0437C60.823-17.1793 58.618-17.275 56.3742-17.3243 56.378-19.4993 56.3817-21.5243 56.3786-23.2081 56.373-25.4431 55.9392-28.0306 56.3642-29.7968 56.563-30.6268 57.763-31.5024 58.3067-32.048 59.7511-33.4993 60.7355-34.6368 62.3405-36.2487 62.968-36.8793 64.0636-37.5524 64.2817-38.3493 64.5992-39.5037 64.2761-41.5237 64.2717-43.1399 64.2692-44.7743 64.2661-46.3761 64.2623-47.7824 64.258-49.883 65.0173-55.7561 62.898-55.8655 61.4005-55.9449 61.4205-54.6011 61.4073-52.8686 61.3786-49.5161 61.418-47.1718 61.4248-43.8843 61.4286-42.403 61.7205-40.7399 61.4355-39.5418 61.1661-38.4149 59.8411-37.4912 59.0455-36.6899 58.0724-35.7143 57.5755-35.168 56.3542-34.2893 56.3392-41.4649 56.3224-49.1018 56.3055-56.7524 56.3049-57.8517 56.088-59.3299 56.3011-59.8967 56.4686-60.3505 57.2924-60.7274 57.7955-61.0973 58.8817-61.8967 59.7855-63.0717 59.8836-64.6961 60.0792-67.9273 57.1961-70.848 53.583-69.9236 51.3849-69.3592 49.1386-66.6298 50.1524-63.3273 50.618-61.8167 51.8317-61.1273 53.4542-60.1892 53.4724-51.5042 53.4911-42.8193 53.5099-34.1343 52.5261-34.7899 51.7724-35.5655 50.8099-36.5237 50.0774-37.253 48.5455-38.3218 48.2574-39.3643 47.9468-40.4911 48.2505-42.3218 48.2486-43.8568 48.2411-47.0311 48.2736-49.3199 48.2293-52.8405 48.2093-54.4949 48.2318-55.7849 46.8743-55.8324 45.3186-55.888 45.3799-54.473 45.3849-52.5349 45.3911-48.863 45.3961-46.6693 45.4043-43.1018 45.4074-41.4936 45.1143-39.6818 45.4143-38.4574 45.7686-37.0099 48.4536-35.1337 49.4661-34.1255 50.1855-33.4087 50.783-32.813 51.5674-32.033 52.0411-31.5618 53.3599-30.3662 53.518-29.7899 53.9961-28.0687 53.528-25.2993 53.533-23.0531L53.543-17.3625 52.663-17.3656C50.6818-17.3656 48.7268-17.3306 46.803-17.2625L46.8024-19.1456C46.7993-20.8362 47.1674-22.8537 46.7918-24.3862 46.4899-25.6156 44.3086-27.3081 43.4893-28.1237 40.428-31.1712 37.9649-33.6237 34.6355-36.938 34.0568-37.5143 32.8462-38.3599 32.8349-38.5818 32.8168-39.0005 34.433-40.1874 34.778-40.533 36.7187-42.483 38.6312-44.2718 40.1562-46.3849 40.1505-49.2805 40.1443-52.1742 40.138-55.0699 40.7374-55.6667 41.5436-55.9067 42.0824-56.4199 45.0899-59.2974 43.1005-66.0886 37.4212-64.9473 34.5812-64.3761 32.7524-60.613 34.1424-57.7517 34.7593-56.4836 35.9874-55.858 37.2924-55.0636 36.8374-52.983 37.898-50.0455 37.308-47.5755 37.0243-46.3868 34.9812-44.788 34.1718-43.9755 33.7055-43.5068 33.2187-43.0174 32.5274-42.3255 32.1412-41.938 31.0024-40.6811 30.8843-40.6743 30.4143-40.6536 27.8831-43.428 27.7324-44.1111 27.6012-44.7055 27.8312-45.5718 27.7281-46.0574 28.2237-46.7686 29.0937-46.8786 29.6724-47.4118 31.7812-49.3424 31.4543-53.6211 29.2056-55.1961 25.6024-57.7211 19.5981-54.2974 21.5824-49.1899 22.1381-47.7586 23.2749-47.1061 24.8831-46.2024 25.0993-45.398 24.6156-44.1768 24.8887-43.0574 25.2031-41.7749 28.5174-38.9974 29.5412-37.9762 33.7712-33.7637 37.3743-30.3268 41.6961-26.0224 42.5461-25.1768 43.7705-24.1199 43.948-23.4824 44.3118-22.1699 43.9561-20.0481 43.9599-18.3887L43.9618-17.1375C41.133-16.9881 38.3818-16.7656 35.7262-16.4787L35.7255-17.025C35.7237-18.4975 36.0387-20.3512 35.7162-21.6674 35.3618-23.1181 32.3893-25.2799 31.0643-26.5993 26.8206-30.823 23.3899-34.2399 19.0593-38.5537 18.1868-39.4218 16.9806-40.4624 16.8068-41.0943 16.4425-42.413 16.8-44.5393 16.7968-46.1861 16.785-51.1717 16.775-56.3636 16.7637-61.4598 17.3606-62.1042 18.1218-62.2705 18.7081-62.8105 19.8331-63.8517 20.8512-66.2755 20.0418-68.3548 18.58-72.1223 11.5618-72.7317 10.46-67.7355 9.87123-65.0598 11.3962-62.6173 13.9181-61.6017 13.9318-55.698 13.9406-51.2061 13.9531-45.4299 13.9562-43.7955 13.59-41.7186 13.9637-40.1899 14.1968-39.233 15.7512-38.1112 16.5162-37.3487 18.8912-34.9843 20.6606-33.2224 23.2681-30.6249 23.6581-30.2381 24.6199-29.2562 24.6187-29.2806 24.6393-28.8337 21.6593-26.3087 21.3312-25.9793 20.2099-24.8531 18.9593-24.0324 18.0437-22.8268 15.0443-24.9156 11.0912-22.1368 10.5631-19.8175 9.8831-16.8356 12.0962-13.5662 15.3675-13.5368 18.185-13.5131 21.7231-16.6668 19.995-20.5849 21.2962-22.3256 23.0818-23.8356 24.9268-25.5381 25.1981-25.7887 26.4331-27.1818 26.5699-27.1881 26.9137-27.2031 27.8862-25.8774 28.2206-25.5437 29.8049-23.9681 31.6424-22.4768 32.873-20.7618L32.8812-16.1412C26.5012-15.3162 20.7543-14.105 15.94-12.6006 6.09186-9.52248-0.00125-5.09374-0.00125-0.0443749ZM95.3648 88.9117C94.4398 88.7804 93.5941 88.6585 93.0166 88.5723 92.3323 88.4729 91.696 88.946 91.5966 89.6304 91.4973 90.3148 91.9704 90.9504 92.6554 91.0504 93.2573 91.1404 94.2898 91.2879 95.411 91.4466 93.6898 94.4266 91.536 97.4348 88.8367 100.261 88.8123 100.283 88.7898 100.305 88.7673 100.328 87.4067 101.746 85.8998 103.125 84.231 104.436 82.5629 105.748 80.746 106.983 78.7692 108.111L78.7148 108.143C72.8817 111.46 65.5836 113.922 56.448 114.855 43.4005 116.185 32.558 113.079 24.1799 107.8 16.9075 103.218 11.4875 97.006 8.09248 90.6473L8.09248 60.6605C9.11873 60.9092 10.1837 61.0405 11.2762 61.0405 15.4518 61.0405 19.2256 59.1292 21.9499 56.0424 24.3681 53.3017 25.9574 49.6311 26.2524 45.5593 29.9862 46.2618 34.0237 46.8224 38.2868 47.2149 42.9761 47.6468 47.9055 47.8793 52.9686 47.8793 67.2861 47.8793 80.2729 46.0574 89.6935 43.1143 95.8823 41.1805 100.588 38.7118 103.23 35.8924 103.162 41.6799 103.02 47.6399 102.797 53.3017 102.577 58.8386 102.277 64.0705 101.892 68.553 101.589 68.5036 101.279 68.478 100.966 68.478 98.6198 68.478 96.536 69.8823 95.0641 72.1498 93.6948 74.2592 92.8473 77.1479 92.8473 80.3104 92.8473 83.4735 93.6948 86.361 95.0641 88.471 95.1623 88.6217 95.2616 88.7685 95.3648 88.9117M101.42 87.7554C102.838 87.7554 104.058 86.8079 104.88 85.2773 105.578 83.9823 106.01 82.2192 106.01 80.2998 106.01 78.3817 105.578 76.6186 104.88 75.3229 104.058 73.7929 102.838 72.8461 101.42 72.8461 100.001 72.8461 98.7816 73.7929 97.9585 75.3236 97.261 76.6186 96.8291 78.3817 96.8291 80.2998 96.8291 82.2192 97.261 83.9823 97.9585 85.2773 98.7816 86.8079 100.001 87.7554 101.42 87.7554M102.677 84.0923C102.292 84.8054 101.843 85.2473 101.42 85.2473 100.996 85.2473 100.547 84.8054 100.163 84.0923 99.6523 83.1442 99.3366 81.8048 99.3366 80.2998 99.3366 78.7961 99.6523 77.4561 100.163 76.5086 100.547 75.7948 100.996 75.3529 101.42 75.3529 101.843 75.3529 102.292 75.7948 102.677 76.5086 103.186 77.4561 103.502 78.7961 103.502 80.2998 103.502 81.8048 103.187 83.1442 102.677 84.0923M98.6335 88.7623C98.596 88.7279 98.5566 88.696 98.5147 88.666 98.0204 88.2567 97.5629 87.7298 97.1604 87.1092 96.0448 85.3904 95.3548 82.9879 95.3548 80.3104 95.3548 77.6329 96.0448 75.2298 97.1604 73.5117 98.1723 71.9517 99.5216 70.9855 100.966 70.9855 102.411 70.9855 103.76 71.9517 104.772 73.5117 105.887 75.2298 106.578 77.6329 106.578 80.3104 106.578 82.9879 105.887 85.3904 104.772 87.1092 103.76 88.6692 102.411 89.6354 100.966 89.6354 100.143 89.6354 99.3504 89.3204 98.6335 88.7623M70.8361 99.906C70.9467 99.916 71.0555 99.9116 71.1592 99.8941L71.3279 99.8954C74.4411 99.8954 77.2473 98.4166 79.2686 96.0254 81.2398 93.6929 82.4598 90.4829 82.4598 86.9529 82.4598 83.4235 81.2398 80.2129 79.2686 77.8804 77.2473 75.4898 74.4411 74.0104 71.3279 74.0104 68.2161 74.0104 65.4098 75.4898 63.3892 77.8804 61.418 80.2142 60.1974 83.4229 60.1974 86.9529 60.1974 90.4829 61.418 93.6923 63.3892 96.0254 63.5711 96.241 63.7605 96.4491 63.9555 96.6498 62.2992 96.4698 60.7398 96.2973 59.7724 96.1866 59.0861 96.1091 58.4649 96.6016 58.3867 97.2885 58.3086 97.9754 58.8017 98.5966 59.488 98.6741 62.3017 98.9966 70.8111 99.9029 70.8361 99.906M71.9804 95.0473C73.7361 95.0473 75.2961 94.0741 76.3986 92.501 77.4086 91.0592 78.0348 89.0904 78.0348 86.9417 78.0348 84.7917 77.4086 82.8242 76.3986 81.3817 75.2961 79.8092 73.7361 78.8361 71.9804 78.8361 70.2248 78.8361 68.6648 79.8092 67.563 81.3817 66.5523 82.8242 65.9267 84.7917 65.9267 86.9417 65.9267 89.0904 66.5523 91.0592 67.563 92.501 68.6648 94.0741 70.2248 95.0473 71.9804 95.0473M74.3511 91.071C73.7161 91.9779 72.8748 92.5398 71.9804 92.5398 71.0867 92.5398 70.2448 91.9785 69.6098 91.071 68.8829 90.0348 68.4342 88.5754 68.4342 86.9417 68.4342 85.3073 68.8829 83.8485 69.6098 82.8117 70.2448 81.9054 71.0867 81.3435 71.9804 81.3435 72.8748 81.3435 73.7161 81.9054 74.3511 82.8117 75.0779 83.8485 75.5273 85.3073 75.5273 86.9417 75.5273 88.5754 75.0779 90.0348 74.3511 91.071M77.3579 94.4098C75.8036 96.2498 73.6704 97.3879 71.3279 97.3879 68.9867 97.3879 66.8542 96.2498 65.2998 94.4098 63.6973 92.5129 62.7048 89.8773 62.7048 86.9529 62.7048 84.0292 63.6973 81.3929 65.2998 79.4961 66.8542 77.6561 68.9867 76.5179 71.3279 76.5179 73.6704 76.5179 75.8036 77.6561 77.3579 79.4961 78.9604 81.3929 79.9523 84.0292 79.9523 86.9529 79.9523 89.8773 78.9604 92.5129 77.3579 94.4098M74.3423 25.4112C78.6504 24.8062 83.6873 23.6556 88.4267 22.1237 92.1354 20.9249 95.6748 19.4875 98.5585 17.8875L98.536 21.4018 98.4991 27.1068C96.3773 29.0237 92.8973 30.7193 89.0948 32.1205 83.9442 34.0162 78.2667 35.343 74.4654 35.9643ZM87.6629 19.7437C82.671 21.3568 77.3348 22.5349 72.9336 23.0693L72.9342 23.0731C72.3092 23.1456 71.8267 23.6806 71.8317 24.3231L71.9836 37.3818C71.9823 37.4443 71.9855 37.508 71.9942 37.5724 72.0829 38.2568 72.7098 38.7387 73.3942 38.6499 77.2336 38.1393 83.9635 36.678 89.9573 34.4712 94.2785 32.8793 98.2616 30.8824 100.625 28.5356L100.625 28.5343C100.852 28.3093 100.993 27.9981 100.993 27.6537L101.034 21.4118 101.07 15.6756 101.07 15.6756C101.071 15.4381 101.005 15.1981 100.865 14.9856 100.487 14.4093 99.7122 14.2493 99.136 14.6275 96.1879 16.5662 92.066 18.3206 87.6629 19.7437M86.9798 107.182C85.9342 108.229 84.4867 108.877 82.8898 108.877 82.7079 108.877 82.5298 108.868 82.3548 108.853 83.5642 108.068 84.7035 107.251 85.7792 106.405 86.7704 105.626 87.711 104.82 88.6048 103.992 88.411 105.228 87.826 106.336 86.9798 107.182M77.0323 0.270624C76.8692-2.63624 76.8879-8.5181 76.9017-12.9475 81.2367-12.2143 85.1879-11.2893 88.6417-10.2106 97.401-7.47311 102.82-3.86749 102.82-0.0443749L102.816 0.106875C102.805 0.17375 102.798 0.243124 102.797 0.313124L102.797 0.380624C102.411 4.04499 97.0748 7.48561 88.6417 10.1206 79.4536 12.9918 66.7342 14.7687 52.663 14.7687 38.5918 14.7687 25.8724 12.9918 16.685 10.1206 7.92561 7.38311 2.50687 3.77812 2.50687-0.0443749 2.50687-3.86749 7.92561-7.47311 16.685-10.2106 21.2893-11.65 26.7812-12.8137 32.8855-13.6168L32.908 0.760623C33.2868 2.13187 35.7693 1.77562 35.8787 0.728748 35.6762-2.97124 35.7087-9.22248 35.7218-13.9587 38.3749-14.2506 41.1299-14.4756 43.9655-14.6275L43.9918 0.638123C44.3949 2.45437 46.9111 1.62312 46.9593 0.604374 46.7661-3.54062 46.783-9.6481 46.7968-14.7537 48.7218-14.8231 50.6786-14.8581 52.663-14.8581L53.5474-14.8556 53.5736 0.531249C54.0274 1.97937 56.3555 1.69937 56.5399 0.499374 56.3824-3.18874 56.3667-9.24248 56.3711-14.8162 58.6199-14.7656 60.8267-14.6706 62.983-14.5318L63.008 0.427499C63.1117 1.6825 65.6667 1.78625 65.9636 0.393124 65.7842-3.14499 65.8048-9.39623 65.8167-14.3237 68.6736-14.0862 71.4317-13.7731 74.0654-13.3925L74.0886 0.303124C74.3429 1.48187 76.3961 1.77937 77.0323 0.270624M15.6512-20.7249C18.1618-20.5837 18.2381-15.9381 15.0625-16.5306 12.2937-17.0493 13.215-20.8662 15.6512-20.7249M94.2685-20.8924C96.9066-20.8974 97.2285-16.1525 93.9779-16.7 91.3367-17.1456 91.8879-20.8874 94.2685-20.8924M26.0662-53.243C29.0937-53.4455 29.1674-48.5111 25.9243-49.0493 22.9774-49.5393 24.2599-53.1205 26.0662-53.243M83.5673-53.3649C86.0654-53.2117 86.1573-48.5568 82.9773-49.1705 80.2361-49.7005 81.1135-53.5155 83.5673-53.3649M36.533-59.7042C36.2193-62.3855 39.3918-62.9073 40.4249-61.3598 41.7036-59.4398 39.8599-57.558 38.0349-58.0599 36.9962-58.3461 36.6037-59.1199 36.533-59.7042M68.8798-59.323C67.9186-62.9261 73.6761-63.258 73.0723-59.6324 72.8723-58.4386 71.8023-57.7742 70.3805-58.1286 69.4942-58.3492 69.0092-58.8374 68.8798-59.323M55.0867-67.2311C57.8705-67.0792 57.4549-62.7542 54.7949-62.8873 53.8517-62.9348 53.5711-63.4298 52.8461-64.2311 52.6492-66.2348 53.5167-67.3167 55.0867-67.2311M15.4006-68.643C18.0037-68.6167 18.22-63.8411 14.9606-64.4492 12.3281-64.9417 12.9831-68.6705 15.4006-68.643M94.3166-68.8111C97.1148-68.7098 96.9479-64.1073 93.876-64.6186 90.9848-65.098 92.126-68.893 94.3166-68.8111M5.58499 84.9173C5.29749 84.0804 5.04749 83.2485 4.83374 82.4254 4.17124 79.8667 3.73749 76.0198 3.44937 71.3723 3.20499 67.4311 3.06624 62.9648 2.98312 58.2386 3.79812 58.8455 4.66874 59.3655 5.58499 59.7874ZM8.09248 46.3199C8.09248 45.628 7.53061 45.0668 6.83873 45.0668 6.14623 45.0668 5.58499 45.628 5.58499 46.3199L5.58499 56.9661C4.50749 56.3349 3.51999 55.5299 2.65187 54.5836 2.62624 54.5536 2.59874 54.523 2.57062 54.4949L2.47437 54.3874C0.179375 51.7855-1.24125 48.1768-1.24125 44.1793-1.24125 40.1974 0.166875 36.603 2.44499 34.0043L2.45937 33.9887 2.50937 33.9312C2.61999 33.8074 2.73249 33.6849 2.84749 33.5649 2.87562 33.5387 2.90187 33.5105 2.92812 33.4812 5.14186 31.2099 8.07185 29.8249 11.2762 29.8249 14.7056 29.8249 17.8193 31.4093 20.0787 33.9712 22.3743 36.5724 23.7949 40.1805 23.7949 44.1793 23.7949 48.1768 22.3743 51.7855 20.0787 54.3874 17.8193 56.948 14.7056 58.533 11.2762 58.533 10.1769 58.533 9.10935 58.3699 8.09248 58.0636ZM10.6231 112.39C9.57998 113.433 8.13373 114.079 6.53311 114.079 4.93249 114.079 3.48624 113.433 2.44249 112.39L2.43687 112.384C1.39312 111.341 0.747498 109.895 0.747498 108.294 0.747498 106.697 1.39562 105.25 2.44249 104.203 3.48937 103.157 4.93561 102.508 6.53311 102.508 8.12998 102.508 9.57685 103.157 10.6231 104.203 11.67 105.25 12.3181 106.697 12.3181 108.294 12.3181 109.895 11.6725 111.341 10.6281 112.384ZM2.77937 30.2737 2.76874 30.2318C2.68749 19.9524 2.57312 10.7668 2.49874 5.38936 5.15811 8.16685 9.82498 10.6 15.94 12.5112 25.3593 15.455 38.3462 17.2762 52.663 17.2762 66.9798 17.2762 79.9667 15.455 89.3867 12.5112 95.5754 10.5762 100.281 8.10873 102.923 5.28874 103.073 10.6662 103.302 19.8006 103.274 29.9687 103.18 30.1443 103.126 30.3456 103.126 30.5593 103.126 34.3824 97.7079 37.9874 88.9485 40.7243 79.7598 43.5955 67.0398 45.3718 52.9686 45.3718 47.9124 45.3718 43.0611 45.1461 38.5124 44.7274 34.1574 44.3255 30.0468 43.7474 26.2668 43.0193 26.0137 38.8593 24.4112 35.1049 21.9499 32.3149 19.2256 29.2287 15.4518 27.3174 11.2762 27.3174 8.12185 27.3174 5.19561 28.4087 2.77937 30.2737" fill="#000000" fill-rule="evenodd" fill-opacity="1" transform="matrix(1 0 0 -1 133.495 517.114)"/><path d="M0 0C-2.52499 1.6725-4.07874-5.54936-4.32186-8.88873-4.51624-11.5918-4.28936-15.4193-3.68999-18.5506-3.09124-21.6812-2.08812-24.1274-0.711873-24.0943-0.129375-24.0731 0.761248-23.4531 0.971873-22.4824 1.50562-20.1843 0.372499-19.5218-0.161875-17.5362-0.938748-14.6243-0.873748-9.49248-0.178125-6.53623 0.404999-4.06874 2.00687-1.31625 0 0M120.301 0.176875C122.826 1.84937 124.38-5.37249 124.623-8.71185 124.817-11.415 124.59-15.2425 123.991-18.3737 123.392-21.5043 122.39-23.9506 121.013-23.9174 120.431-23.8956 119.54-23.2762 119.33-22.3056 118.796-20.0075 119.928-19.3443 120.463-17.3587 121.24-14.4475 121.175-9.3156 120.479-6.35936 119.896-3.89187 118.294-1.13937 120.301 0.176875M133.688 14.3237C135.208 15.2343 136.213 13.4087 137.265 10.6943 138.495 7.51873 139.58 3.81749 140.291-0.371249 141.004-4.57124 141.392-9.2606 141.182-14.3925 141.068-17.2056 140.777-19.6893 140.389-21.9762 140-24.2631 139.466-26.3624 138.9-28.4143 137.977-31.7693 136.245-39.0687 133.801-38.158 132.587-37.7137 132.263-36.0743 132.862-33.8374 133.153-32.8062 134.432-30.8374 134.755-29.8943 135.776-26.9931 136.618-24.0706 137.119-20.6881 137.622-17.2937 137.832-13.4437 137.62-8.7006 137.443-4.81311 136.893-1.4675 136.132 1.53062 135.371 4.52499 134.383 7.18936 133.315 9.75623 132.716 11.1762 132.133 13.3862 133.688 14.3237M127.277 7.44186C129.689 8.8131 131.048 2.51249 131.793-0.437499 132.668-3.91937 133.073-7.95998 133.073-11.98 133.073-16.005 132.619-19.9968 131.745-23.3849 131.048-26.1656 129.528-31.6218 127.602-31.2324 127.148-31.1443 126.274-30.4537 126.096-29.0612 125.853-27.1143 126.582-26.8287 127.229-25.1293 128.637-21.4112 129.414-16.7281 129.462-11.9581 129.51-7.19873 128.863-2.36749 127.455 1.62437 127.148 2.49062 126.921 2.85812 126.711 3.45562 126.307 4.56374 125.95 6.69186 127.277 7.44186M-13.3862 14.1468C-14.9081 15.0568-15.9112 13.2312-16.9637 10.5168-18.1937 7.34186-19.2787 3.64062-19.99-0.548124-20.7031-4.74874-21.0912-9.4381-20.8812-14.57-20.7674-17.3831-20.4762-19.8668-20.0875-22.1531-19.6987-24.4406-19.165-26.5399-18.5981-28.5918-17.6756-31.9462-15.9437-39.2455-13.5-38.3349-12.2856-37.8912-11.9618-36.2512-12.5606-34.0143-12.8518-32.983-14.1306-31.0149-14.4543-30.0712-15.4743-27.1706-16.3175-24.2481-16.8181-20.8649-17.32-17.4712-17.53-13.6212-17.3193-8.8781-17.1418-4.99061-16.5918-1.645-15.8306 1.35375-15.07 4.34811-14.0825 7.01248-13.0137 9.57935-12.415 10.9993-11.8325 13.2093-13.3862 14.1468M-6.97623 7.26498C-9.3881 8.6356-10.7475 2.33499-11.4925-0.614373-12.3668-4.09686-12.7712-8.13748-12.7712-12.1575-12.7712-16.1818-12.3175-20.1737-11.4437-23.5624-10.7475-26.3431-9.22623-31.7987-7.29998-31.4093-6.84686-31.3218-5.97249-30.6312-5.79499-29.2381-5.55186-27.2912-6.27998-27.0062-6.92748-25.3062-8.3356-21.5887-9.1131-16.905-9.16123-12.135-9.20935-7.37561-8.56248-2.54437-7.15436 1.4475-6.84686 2.31312-6.61998 2.68062-6.40998 3.27874-6.00561 4.38686-5.64936 6.51436-6.97623 7.26498" fill="#000000" fill-rule="evenodd" fill-opacity="1" transform="matrix(1 0 0 -1 125.473 433.08)"/><path d="M0 0C53.8024 0 97.4348-43.6324 97.4348-97.4348 97.4348-127.642 83.681-154.641 62.0961-172.514L62.0961-163.343C62.7342-162.74 63.3636-162.129 63.9836-161.509 80.3604-145.133 90.491-122.51 90.491-97.5254 90.491-72.5411 80.3604-49.9186 63.9836-33.5418 47.6068-17.1643 24.9837-7.03373-0.000624998-7.03373-24.9843-7.03373-47.6074-17.1643-63.9842-33.5418-80.3611-49.9186-90.4923-72.5411-90.4923-97.5254-90.4923-122.51-80.3611-145.133-63.9842-161.509-63.4755-162.018-62.9605-162.52-62.4398-163.016L-62.4398-172.224C-83.8254-154.349-97.4348-127.48-97.4348-97.4348-97.4348-43.6324-53.803 0 0 0M62.0961-159.861 62.0961-154.995C76.1079-139.887 84.6798-119.661 84.6798-97.4348 84.6798-50.6755 46.7593-12.7543 0-12.7543-46.7599-12.7543-84.681-50.6755-84.681-97.4348-84.681-119.48-76.2498-139.558-62.4398-154.626L-62.4398-159.516C-78.2323-143.61-87.9917-121.705-87.9917-97.5254-87.9917-73.2311-78.1411-51.233-62.2167-35.3093-46.293-19.385-24.2949-9.53373-0.000624998-9.53373 24.2937-9.53373 46.2918-19.385 62.2161-35.3093 78.1398-51.233 87.991-73.2311 87.991-97.5254 87.991-121.82 78.1398-143.818 62.2161-159.742Z" fill="#000000" fill-rule="evenodd" fill-opacity="1" transform="matrix(1 0 0 -1 185.527 344.734)"/><path d="M0 0 3.00437 2.78874-1.8 4.99561ZM-0.899998-7.60561-6.01624 9.59748-5.84124 9.75998 10.8075 3.25999 7.9506 0.608123 5.67936 1.6025 1.04-2.70312 1.84625-5.05686ZM23.9093 21.4693C23.0106 21.8312 22.1762 22.0287 21.4062 22.0531 20.6381 22.0831 19.9043 21.9431 19.2087 21.6356 17.9993 21.0999 17.1962 20.2468 16.7981 19.075 16.3975 17.9012 16.4887 16.66 17.0656 15.3568 17.6437 14.05 18.4918 13.16 19.6125 12.6875 20.7299 12.2137 21.9012 12.2456 23.1237 12.7862 23.8456 13.1062 24.4981 13.5756 25.0831 14.1962 25.6681 14.8168 26.1849 15.5831 26.6324 16.5043L28.0943 12.62C27.6656 11.9362 27.1399 11.3262 26.5099 10.79 25.8806 10.2506 25.1756 9.80998 24.3931 9.46373 23.5531 9.09248 22.6918 8.86748 21.8031 8.7881 20.9181 8.70998 20.0337 8.78435 19.1593 9.0081 17.9193 9.3231 16.8275 9.8931 15.8768 10.7168 14.9306 11.54 14.1825 12.5668 13.64 13.7931 13.1718 14.8512 12.915 15.9225 12.8656 17.0056 12.82 18.09 12.9812 19.1412 13.3562 20.155 13.7381 21.1712 14.3012 22.0674 15.0475 22.8518 15.7912 23.6306 16.6687 24.2437 17.68 24.6906 18.4793 25.0449 19.295 25.2731 20.1231 25.3699 20.9506 25.4706 21.7962 25.4393 22.6568 25.2818ZM40.8055 14.3168 39.3299 26.5712 34.4024 25.9781 34.0124 29.2168 47.5436 30.8462 47.9336 27.6068 43.028 27.0168 44.5036 14.7618ZM57.9617 14.1531 60.7067 29.5143 64.3742 28.8587 61.6286 13.4975ZM77.7992 16.5868C77.1811 15.3806 77.0161 14.19 77.3054 13.0137 77.5942 11.8375 78.2548 10.9837 79.2879 10.4537 80.3273 9.92123 81.4073 9.87935 82.526 10.33 83.6448 10.7806 84.5135 11.6143 85.1348 12.8275 85.7598 14.0468 85.9317 15.2425 85.646 16.4175 85.3604 17.5912 84.6967 18.4475 83.6567 18.98 82.6242 19.5093 81.5448 19.5462 80.4211 19.0943 79.2979 18.6425 78.4242 17.8062 77.7992 16.5868M74.3892 18.3343C74.9154 19.3612 75.5861 20.2349 76.4017 20.9481 77.2154 21.6662 78.1492 22.1993 79.2023 22.5549 80.1998 22.8981 81.2217 23.0312 82.2685 22.9487 83.3179 22.8687 84.3123 22.5862 85.2573 22.1024 86.2017 21.6181 87.0135 20.9706 87.6935 20.1637 88.371 19.3587 88.8698 18.4387 89.1898 17.4118 89.516 16.3818 89.626 15.3306 89.5117 14.2543 89.4016 13.1793 89.0779 12.12 88.5448 11.08 88.0992 10.2106 87.5592 9.45498 86.926 8.81435 86.2885 8.17498 85.5704 7.65936 84.7679 7.26936 83.6304 6.71748 82.4385 6.44561 81.1967 6.45436 79.9554 6.45811 78.7823 6.74561 77.6773 7.31248 76.7392 7.79311 75.9342 8.43685 75.2604 9.2406 74.5892 10.0425 74.0973 10.9587 73.7842 11.9825 73.4561 13.0418 73.3436 14.1112 73.4479 15.1843 73.5473 16.2562 73.8629 17.3075 74.3892 18.3343M92.3554-1.47312 104.54 9.06873 104.773 8.79935 104.244-4.50749 110.747 1.11937 112.995-1.47812 100.746-12.075 100.534-11.8306 101.04 1.49812 94.6029-4.07124Z" fill="#000000" fill-rule="nonzero" fill-opacity="1" transform="matrix(1 0 0 -1 136.9 392.172)"/></g></g></svg>